<svg width="1152" height="85" viewBox="0 0 1152 85" fill="none" xmlns="http://www.w3.org/2000/svg">
<rect width="1152" height="85" fill="black"/>
<line y1="40.5" x2="1152" y2="40.5" stroke="black" stroke-width="3"/>
<line x1="75" y1="40.5" x2="1152" y2="40.5" stroke="white" stroke-width="3"/>
<path d="M749 1H654L708 41.012L654 84H749L795 41.012L749 1Z" fill="white" stroke="white" stroke-width="2"/>
<path d="M1031 1H936L990 41.012L936 84H1031L1077 41.012L1031 1Z" fill="white" stroke="white" stroke-width="2"/>
<path d="M890 1H795L849 41.012L795 84H890L936 41.012L890 1Z" fill="white" stroke="white" stroke-width="2"/>
<ellipse cx="72.5" cy="70" rx="8.5" ry="8" fill="white"/>
<ellipse cx="18.5" cy="14" rx="8.5" ry="8" fill="white"/>
<ellipse cx="18.5" cy="70" rx="8.5" ry="8" fill="white"/>
<path d="M46 1H1V84H105L46 1Z" stroke="white" stroke-width="2"/>
</svg>





