<svg width="188" height="249" viewBox="0 0 188 249" fill="none" xmlns="http://www.w3.org/2000/svg">
<path d="M28.3339 58.7871C60.86 11.2024 127.243 -4.07181 183.163 56.262" stroke="white" stroke-width="8" stroke-linecap="round"/>
<path d="M39.0275 208.983L47.5275 194.261L38.676 162.592L44.1628 142.088L44.5205 117.469L55.2836 109.827L65.676 115.827L66.5144 150.374L109.514 75.8962L121.425 75.267L127.701 86.3962L106.201 123.635M99.4509 135.327L106.201 123.635M106.201 123.635L117.928 122.323L122.222 132.885M122.222 132.885L115.472 144.577M122.222 132.885L136.115 132.823L139.976 143.135M139.976 143.135L133.226 154.827M139.976 143.135L153.868 143.073L157.729 153.385L130.863 197.919L99.0561 224.011L90.5561 238.733" stroke="white" stroke-width="7"/>
</svg>
