<svg width="192" height="249" viewBox="0 0 192 249" fill="none" xmlns="http://www.w3.org/2000/svg">
<path d="M119.528 225.983L111.028 211.261L79.176 203.092L64.1628 188.088L43.0205 175.469L41.7836 162.327L52.176 156.327L82.5144 172.874L39.5144 98.3962L44.9247 87.767L57.7009 87.8962L79.2009 125.135M85.9509 136.827L79.2009 125.135M79.2009 125.135L83.9282 114.323L95.2224 115.885M95.2224 115.885L101.972 127.577M95.2224 115.885L102.115 103.823L112.976 105.635M112.976 105.635L119.726 117.327M112.976 105.635L119.868 93.5731L130.729 95.3853L155.863 140.919L162.556 181.511L171.056 196.233" stroke="white" stroke-width="7"/>
<path d="M182.097 58.7871C149.571 11.2024 83.1882 -4.07179 27.2677 56.262" stroke="white" stroke-width="8" stroke-linecap="round"/>
</svg>
